HIERARCHY
ROOT ui
{
	 OFFSET 0 0 0
	 CHANNELS 3 XPosition YPosition Z Position
	 EndSite
	 {
	 OFFSET 0 -1 0
	 }
}
ROOT li
{
	 OFFSET 0 0 0
	 CHANNELS 3 XPosition YPosition Z Position
	 EndSite
	 {
	 OFFSET 0 -1 0
	 }
}
ROOT ul
{
	 OFFSET 0 0 0
	 CHANNELS 3 XPosition YPosition Z Position
	 EndSite
	 {
	 OFFSET 0 -1 0
	 }
}
ROOT ll
{
	 OFFSET 0 0 0
	 CHANNELS 3 XPosition YPosition Z Position
	 EndSite
	 {
	 OFFSET 0 -1 0
	 }
}
ROOT tt
{
	 OFFSET 0 0 0
	 CHANNELS 3 XPosition YPosition Z Position
	 EndSite
	 {
	 OFFSET 0 -1 0
	 }
}
ROOT tb
{
	 OFFSET 0 0 0
	 CHANNELS 3 XPosition YPosition Z Position
	 EndSite
	 {
	 OFFSET 0 -1 0
	 }
}
ROOT td
{
	 OFFSET 0 0 0
	 CHANNELS 3 XPosition YPosition Z Position
	 EndSite
	 {
	 OFFSET 0 -1 0
	 }
}
ROOT v
{
	 OFFSET 0 0 0
	 CHANNELS 3 XPosition YPosition Z Position
	 EndSite
	 {
	 OFFSET 0 -1 0
	 }
}
ROOT bn
{
	 OFFSET 0 0 0
	 CHANNELS 3 XPosition YPosition Z Position
	 EndSite
	 {
	 OFFSET 0 -1 0
	 }
}
MOTION
Frames: 13
Frame Time: 0.002
0.002157625913619995	1.4168000221252442E-4	0		0.4949002990722656	-2.354285888671875	0		-0.963231689453125	0.341529296875	0		-0.4479022216796875	-2.61017529296875	0		1.8498597412109374	-1.06176318359375	0		3.46943603515625	-0.45812210083007815	0		4.8399453125	-0.23182785034179687	0		6.0621025390625	0.7072817993164062	0		-0.39267755126953124	5.88372119140625	0		
0.00206679105758667	2.1929900348186492E-4	0		0.5446004028320313	-2.361775146484375	0		-0.9633035888671875	0.3416604919433594	0		-0.46914743041992185	-2.610845947265625	0		1.8446346435546874	-1.0687337646484374	0		3.4492236328125	-0.4670203857421875	0		4.83677685546875	-0.23798583984375	0		6.06204541015625	0.7068286743164063	0		-0.42749395751953123	5.87919921875	0		
0.0019413939714431764	3.015199899673462E-4	0		0.49239324951171876	-2.35616064453125	0		-0.9634088745117187	0.34179953002929686	0		-0.4737085266113281	-2.636691162109375	0		1.867314697265625	-1.0810089111328125	0		3.44403857421875	-0.4700867004394531	0		4.83970263671875	-0.23222120666503906	0		6.05973876953125	0.687374755859375	0		-0.41216555786132814	5.88914306640625	0		
0.0017875670194625855	3.879370093345642E-4	0		0.5297198486328125	-2.390517333984375	0		-1.0364825439453125	0.3477424011230469	0		-0.5031551513671875	-2.6482578125	0		1.8540291748046875	-1.0868958740234376	0		3.469875732421875	-0.4684976806640625	0		4.8236005859375	-0.2262605285644531	0		6.06327392578125	0.7023424682617188	0		-0.4099870300292969	5.8862333984375	0		
0.0046436691284179685	0.0034449009895324706	0		0.551530029296875	-2.377703857421875	0		-0.945510498046875	0.358899658203125	0		-0.4416605224609375	-2.662815185546875	0		1.87277001953125	-1.0881341552734376	0		3.458834228515625	-0.4535119323730469	0		4.8393427734375	-0.23265753173828124	0		6.06665234375	0.6861493530273437	0		-0.41175006103515627	5.8893720703125	0		
0.0014163830280303955	5.70963978767395E-4	0		0.5191236572265625	-2.382293701171875	0		-0.960724365234375	0.35522171020507814	0		-0.49218426513671876	-2.676139404296875	0		1.8704588623046876	-1.0921436767578125	0		3.443422607421875	-0.4704827880859375	0		4.83913232421875	-0.23288719177246095	0		6.059390625	0.6857942504882812	0		-0.2442637939453125	5.91464599609375	0		
0.0012082680463790893	6.655460000038147E-4	0		0.5159862670898437	-2.361202392578125	0		-0.9609082641601563	0.35538204956054686	0		-0.4687435913085938	-2.69127685546875	0		1.8620653076171876	-1.1020872802734376	0		3.46023681640625	-0.4658128051757813	0		4.835841796875	-0.239089599609375	0		6.0592509765625	0.6852342529296875	0		-0.37829275512695315	5.895248046875	0		
-0.0030429480075836184	-0.0021947999000549315	0		0.48863775634765627	-2.357842041015625	0		-1.033040771484375	0.36134939575195313	0		-0.5162706298828125	-2.701622802734375	0		1.8587254638671875	-1.1060894775390624	0		3.473862060546875	-0.47711685180664065	0		4.8286748046875	-0.23325640869140624	0		6.0526865234375	0.6848291015625	0		-0.4121506042480469	5.89075	0		
7.663599848747254E-4	8.536059856414795E-4	0		0.5258574829101562	-2.392209716796875	0		-1.0341373291015625	0.3705284423828125	0		-0.478918212890625	-2.72191845703125	0		1.858421142578125	-1.106130859375	0		3.476772216796875	-0.46231015014648436	0		4.83843310546875	-0.23362583923339844	0		6.060365234375	0.6805498657226563	0		-0.44601275634765625	5.88525634765625	0		
5.400999784469604E-4	9.441159963607789E-4	0		0.5195990600585938	-2.379091552734375	0		-0.9573406982421875	0.36982403564453126	0		-0.48643936157226564	-2.7297119140625	0		1.87709912109375	-1.107395263671875	0		3.477397705078125	-0.47249163818359374	0		4.8322578125	-0.22783135986328126	0		6.05895703125	0.7162774658203125	0		-0.3776763916015625	5.895609375	0		
3.1547001004219054E-4	0.0010303280353546143	0		0.5413932495117187	-2.3612978515625	0		-0.9694216918945312	0.3801210632324219	0		-0.46607177734375	-2.746826416015625	0		1.864800537109375	-1.106318115234375	0		3.498203369140625	-0.4669158935546875	0		4.8428544921875	-0.24224562072753905	0		6.06006298828125	0.6792360229492187	0		-0.37744247436523437	5.89572509765625	0		
0.009980560302734375	-0.009003516197204589	0		0.4870224609375	-2.357640625	0		-0.9805064697265625	0.3894050598144531	0		-0.46575289916992185	-2.76771875	0		1.891467529296875	-1.1086973876953126	0		3.470959716796875	-0.4658058776855469	0		4.8377080078125	-0.23449671936035157	0		6.06774609375	0.6748473510742188	0		-0.3913029479980469	5.8859970703125	0		
-0.00414932918548584	-0.0017692350149154663	0		0.56522998046875	-2.391519287109375	0		-0.9738480224609375	0.375479248046875	0		-0.47835311889648435	-2.781467041015625	0		1.90399072265625	-1.1239290771484376	0		3.470710205078125	-0.46601812744140625	0		4.83338525390625	-0.24277468872070312	0		6.06760595703125	0.6741011352539062	0		-0.42991104125976565	5.8965537109375	0		
